<?xml version="1.0" standalone="no"?>
<!DOCTYPE svg PUBLIC "-//W3C//DTD SVG 20010904//EN"
 "http://www.w3.org/TR/2001/REC-SVG-20010904/DTD/svg10.dtd">
<svg version="1.0" xmlns="http://www.w3.org/2000/svg"
 width="180.000000pt" height="180.000000pt" viewBox="0 0 180.000000 180.000000"
 preserveAspectRatio="xMidYMid meet">

<g transform="translate(0.000000,180.000000) scale(0.100000,-0.100000)"
fill="#000000" stroke="none">
<path d="M1113 1672 c-7 -4 -25 -26 -40 -49 -36 -54 -178 -182 -268 -243 -38
-25 -101 -61 -140 -79 -86 -40 -105 -56 -105 -91 0 -61 60 -89 130 -62 30 11
163 109 272 199 43 34 83 63 89 63 31 0 -24 -509 -78 -724 -59 -236 -247 -382
-447 -345 -69 12 -110 31 -149 67 -22 21 -27 34 -27 72 0 51 20 88 91 169 25
28 39 54 39 71 0 37 -30 62 -71 58 -27 -2 -43 -15 -82 -63 -71 -89 -108 -170
-108 -238 0 -100 49 -163 171 -221 53 -24 81 -31 154 -34 152 -8 265 31 367
125 131 122 167 241 234 783 19 157 35 289 35 293 0 22 34 -1 81 -55 87 -103
242 -259 271 -274 63 -33 138 -5 138 51 0 28 -27 55 -110 110 -108 72 -284
269 -352 394 -14 25 -23 31 -50 31 -18 0 -38 -4 -45 -8z"/>
</g>
</svg>
