<?xml version="1.0" standalone="no"?>
<!DOCTYPE svg PUBLIC "-//W3C//DTD SVG 20010904//EN"
 "http://www.w3.org/TR/2001/REC-SVG-20010904/DTD/svg10.dtd">
<svg version="1.0" xmlns="http://www.w3.org/2000/svg"
 width="180.000000pt" height="180.000000pt" viewBox="0 0 180.000000 180.000000"
 preserveAspectRatio="xMidYMid meet">

<g transform="translate(0.000000,180.000000) scale(0.100000,-0.100000)"
fill="#000000" stroke="none">
<path d="M1103 1612 c-7 -4 -25 -27 -41 -51 -64 -94 -269 -256 -407 -320 -86
-40 -105 -56 -105 -91 0 -61 60 -89 130 -62 30 11 163 109 272 199 43 34 83
63 89 63 25 0 -7 -358 -55 -615 -26 -144 -60 -235 -113 -308 -81 -110 -235
-173 -361 -146 -114 23 -175 72 -174 138 1 49 17 80 81 156 56 64 64 100 32
129 -12 11 -31 16 -52 14 -27 -2 -43 -15 -82 -63 -71 -89 -108 -170 -108 -238
0 -100 49 -163 171 -221 53 -24 81 -31 154 -34 155 -8 266 31 372 130 81 76
126 167 159 320 19 86 105 702 105 750 0 23 33 1 81 -54 87 -103 242 -259 271
-274 63 -33 138 -5 138 51 0 28 -27 55 -110 110 -108 72 -284 269 -352 394
-14 25 -23 31 -50 31 -18 0 -38 -4 -45 -8z"/>
</g>
</svg>
